<svg xmlns="http://www.w3.org/2000/svg" width="1993" height="1635" fill="none"><path fill="#47967D" d="M844.1 1334.6c-44.5-66.4-114.7-110-178.1-158.5-60.5-46.2-106.7-97-134.5-168.1-8.2-21-5.3-19.3-28.7-21.6-20.7-2-41.3-2.2-62-5.2-38.9-5.7-163.2-43.7-196.8-64.7-57.2-35.6-143.1-166.1-121.3-229.9l-5.7 1.6c-42.6 33.6 72.4 189.8 102.5 235 17.4 29 34.8 58 63.9 81.3 63.9 40.6 151 5.8 203.3 46.4 63.9 52.3 69.7 156.9 145.2 203.4 104.6 63.9 185.9 139.4 261.4 226.5 11.6 5.9 29 17.5 46.5 23.3a161 161 0 0 0 20.3 24.6l11.3 4.3c-65-45.6-83-132.5-127.3-198.4Z"/><path fill="url(#a)" d="M296.8 871.6a91.2 91.2 0 0 1 10.1-95.7c20.4-25.2-5.5-124 28.8-119.5C307 854.9 283 890.8 362.6 889.9c76 75.2 96.7 43.3 120.8 81.5 28.7 48.3 7 112.7 44.7 160.6 52.4 66 86.8 132.8 114.7 205.1 6 6.6 14.6 18.2 24.5 26.2 1.6 6.8 4.2 14 7.2 20.2-100.4-88.7-174-204.3-208.8-328-7.9-28.3-17.1-61-45-74-13.5-6.1-28.8-6.3-43.4-6.3-14.6 0-29.8-.1-43.3-6.3-13.5-6.2-24.4-20.3-21.2-33.7"/><path fill="#47967D" d="M1148.8 1334.6c44.6-66.4 114.8-110 178.3-158.5 60.4-46.2 106.6-97 134.4-168.1 8.2-21 5.3-19.3 28.7-21.6 20.7-2 41.3-2.2 62-5.2 38.9-5.7 163.2-43.7 196.8-64.7 57.2-35.6 143.1-166.1 121.3-229.9l5.7 1.6c42.6 33.6-72.4 189.8-102.5 235-17.4 29-34.8 58-63.9 81.3-63.9 40.6-151 5.8-203.3 46.4-63.9 52.3-69.7 156.9-145.2 203.4-104.6 63.9-185.9 139.4-261.4 226.5-11.6 5.9-29 17.5-46.5 23.3a167 167 0 0 1-20.3 24.6l-11.3 4.3c65-45.6 83-132.5 127.2-198.4Z"/><path fill="url(#b)" d="M1696.2 871.6c15-31.5 11-69.5-10.1-95.7-20.4-25.2 5.5-124-28.8-119.5 28.7 198.5 52.7 234.4-26.9 233.5-76 75.2-96.7 43.3-120.8 81.5-28.7 48.3-7 112.7-44.8 160.6-52.3 66-86.7 132.8-114.5 205.1-6.2 6.6-14.7 18.2-24.6 26.2a111 111 0 0 1-7.2 20.2c100.4-88.7 174-204.3 208.8-328 7.9-28.3 17.1-61 45.1-74 13.4-6.1 28.7-6.3 43.3-6.3 14.6 0 29.8-.1 43.3-6.3 13.5-6.2 24.4-20.3 21.2-33.7"/><path fill="url(#c)" d="m1488 677.5 286.2-91.9-92.7-2.5 311.5-97.5-33.8-17.7-78.4 27.3-61.5-16.4-391.8 118.1L1659 486.7c7.5-3 21.7-14 19.3-34.5-2.4-20.5-39.3-2.2-57.3 9.4-10 .3-35.2 3-55.7 12.4-20.4 9.4-131.3 62-184.1 87l16.4-19.1 313.1-140.5 21-77.4-26.8-7.1-84.3 49.3c23-14.1 68.6-44.6 68-53.7-.5-9-54.4 19-81.3 34l-202.7 127.9-23.4 86.6 46.3 36 60.4 80.5Z"/><path fill="url(#d)" d="m1382 532 255.2-164.4-91.1 21.7L1824.3 213l-37.6-8.5-69.3 47.1H1653l-351.2 217.6 196.9-168a32.8 32.8 0 0 0 9.7-38.7c-7.8-19.3-38.9 8-53.5 24.2a158 158 0 0 0-51 26.6 33350 33350 0 0 0-156.7 133l10.9-23 268.5-218.8v-81h-28l-69.2 70.1c18.6-19.7 55.2-61.4 52.3-70-3-8.8-48.2 32.5-70.5 54.3l-164 177.7V446l54.6 23 80.2 62.8Z"/><path fill="#38A399" d="m1495.7 6.3-23.9 1.4-264.5 404.6 121.9-197.6-28.5 14.4 85.8-128.8c4.9-8 13.3-26.3 7.8-34.1-10.1 1-23.9 11.3-29.5 16.3l-56.4 79.1c-.9-3.6-5-9.8-14.8-5.5-9.7 4.3-21 20-25.3 27.4L1128 388l79.3 24.3 24.9 35 208-316.4 12.5-8.8 66.6-101.5 2.6-18.3-17.2-2.3-9 6.3Z"/><path fill="url(#e)" d="m505 677.5-286.2-91.9 92.7-2.5L0 485.6l33.8-17.7 78.4 27.3 61.5-16.4 391.8 118.1L334 486.7c-7.5-3-21.7-14-19.3-34.5 2.4-20.5 39.2-2.2 57.3 9.4 10 .3 35.2 3 55.7 12.4 20.4 9.4 131.3 62 184.1 87l-16.4-19-313-140.5-21-77.4L288 317l84.3 49.3c-23-14.1-68.6-44.6-68-53.7.5-9 54.4 19 81.4 34l202.6 127.9 23.4 86.6-46.3 36-60.4 80.5Z"/><path fill="url(#f)" d="M611 532 355.8 367.5l91.1 21.7L168.7 213l37.7-8.5 69.2 47.1H340l351.2 217.6-196.9-168a32.8 32.8 0 0 1-9.7-38.7c7.8-19.3 38.9 8 53.5 24.2a158 158 0 0 1 51 26.6 38108 38108 0 0 1 156.7 133l-10.9-23-268.5-218.8v-81h28l69.2 70.1c-18.6-19.7-55.2-61.4-52.3-70 3-8.8 48.2 32.5 70.5 54.3l164 177.7V446l-54.6 23-80.2 62.8Z"/><path fill="#38A399" d="m497.3 6.3 23.9 1.4 264.5 404.6-121.9-197.6 28.5 14.4-85.8-128.8c-4.9-8-13.3-26.3-7.8-34.1 10.1 1 23.9 11.3 29.5 16.3l56.4 79.1c.9-3.6 5-9.8 14.8-5.5 9.7 4.3 21 20 25.3 27.4L865 388l-79.3 24.3-24.9 35-208-316.4-12.5-8.8-66.6-101.5L471 2.3 488.3 0l9 6.3Z"/><path fill="#2C7E42" fill-rule="evenodd" d="M996.5 366.4c-326.2 0-590.7 263-590.7 587.5 0 324.6 264.5 587.6 590.7 587.6 326.2 0 590.7-263 590.7-587.6 0-324.5-264.5-587.5-590.7-587.5Zm0 71c-286.8 0-519.2 231.3-519.2 516.5 0 285.3 232.4 516.5 519.2 516.5 286.8 0 519.2-231.2 519.2-516.5 0-285.2-232.4-516.4-519.2-516.4Z" clip-rule="evenodd"/><path fill="url(#g)" fill-opacity=".5" fill-rule="evenodd" d="M996.5 1541.5c326.2 0 590.7-263 590.7-587.6 0-324.5-264.5-587.5-590.7-587.5-326.2 0-590.7 263-590.7 587.5 0 324.6 264.5 587.6 590.7 587.6Zm0-71c286.8 0 519.2-231.3 519.2-516.6 0-285.2-232.4-516.4-519.2-516.4-286.8 0-519.2 231.2-519.2 516.4 0 285.3 232.4 516.5 519.2 516.5Z" clip-rule="evenodd"/><path fill="#41A897" d="m858.5 173.7 108-37.1L1000 34.3v139.4H858.5Z"/><path fill="#279B6E" d="m965 205.7-108-32h141.4V34.3l25.8 102.3 111.8 37-111.8 32L998.4 326 965 205.7Z"/><path fill="#56B798" d="m1025.7 136.6 111.8 37H1000V34.4l25.7 102.3Z"/><path fill="#41A897" d="m649.7 299 77.4-26.7 24-73.3v100H649.6Z"/><path fill="#279B6E" d="M727 321.8 649.8 299H751V199l18.4 73.3 80.2 26.6-80.2 23-18.4 86-24-86Z"/><path fill="#56B798" d="m769.4 272.3 80.2 26.6H751V199l18.4 73.3Z"/><path fill="#41A897" d="m1126.4 299 77.4-26.7 24-73.3v100h-101.4Z"/><path fill="#279B6E" d="m1203.8 321.8-77.4-22.9h101.3V199l18.5 73.3 80.1 26.6-80.1 23-18.5 86-24-86Z"/><path fill="#56B798" d="m1246.2 272.3 80.1 26.6h-98.5V199l18.4 73.3Z"/><path fill="#265A49" d="M696 1294c-47.2-37.2-95.5-75.5-127.1-126.7-13.6-21.8-23.9-45.7-38.5-66.8-14.6-21.2-34.9-40.1-60-45.7-43-9.6-88.6 22-130.6 8.4-26.1-8.4-47.6-33.4-74.9-31-29.6 2.6-46.5 35.6-73.7 47.6a57.8 57.8 0 0 1-72.4-26.3 57.8 57.8 0 0 1 23.2-73.4c-26.5-1.2-60.4 2.6-67.7 28-4.1 14.1 2.6 28.9 9 42l30.3 61c10.5 21.3 21.7 43.4 41.2 56.9 23.4 16 53.6 16.6 81.6 20.9 62.9 9.6 122 41.8 164.2 89.4l-30.3 2c1.7 11.9 3.2 24.5-2 35.3-10.1 20.8-39.4 22.9-61.8 16.8-22.4-6-45-17.2-67.7-12.1 34.3 36.3 77.7 64 125 79.8 53.3 17.9 110.2 20.8 165.3 31.4a590.2 590.2 0 0 1 145.7 48.7c79.7 13.8 161.3 54.2 241.7 61.3-16.8-35.3-29.8-93.8-59.7-120.5-50.7-45.2-107.5-85-160.8-127Zm601 0c47.2-37.2 95.5-75.5 127.2-126.7 13.5-21.8 23.8-45.7 38.4-66.8 14.6-21.2 34.9-40.1 60-45.7 43-9.6 88.6 22 130.6 8.4 26.1-8.4 47.6-33.4 74.9-31 29.6 2.6 46.5 35.6 73.7 47.6 26 11.5 59.9-.8 72.4-26.3a57.8 57.8 0 0 0-23.2-73.4c26.5-1.2 60.4 2.6 67.7 28 4.1 14.1-2.6 28.9-9 42l-30.3 61c-10.5 21.3-21.8 43.4-41.2 56.9-23.4 16-53.6 16.6-81.6 20.9a277.7 277.7 0 0 0-164.2 89.4l30.3 2c-1.7 11.9-3.3 24.5 2 35.3 10.1 20.8 39.4 22.9 61.8 16.8 22.4-6 45-17.2 67.7-12.1a307.7 307.7 0 0 1-125 79.8c-53.3 17.9-110.2 20.8-165.3 31.4a590 590 0 0 0-145.7 48.7c-79.7 13.8-161.3 54.2-241.7 61.3 16.8-35.3 29.8-93.8 59.7-120.5 50.7-45.2 107.5-85 160.8-127Zm-252.2 303.4v26c0 3-16 11.6-46.5 11.6s-46.5-8.7-46.5-11.6v-26c11.4 5.8 29.3 8.5 46.5 8.5s35.2-2.7 46.5-8.5Zm0-40.7v26c0 3-16 11.6-46.5 11.6s-46.5-8.6-46.5-11.6v-25.9c11.4 5.8 29.3 8.5 46.5 8.5s35.2-2.8 46.5-8.6Z"/><g clip-path="url(#h)"><path fill="#418471" d="M988.5 1441c-39.8 0-76.8-53-104.1-149.2-26.5-93.4-41.1-217.2-41.1-348.8 0-131.6 14.6-255.4 41-348.8C911.8 498 948.8 445 988.6 445v23.4c-34 0-66.3 48.2-91.2 135.7-25.6 90.3-39.7 210.7-39.7 338.9s14 248.6 39.7 339c24.9 87.4 57.2 135.6 91.2 135.6v23.4Z"/><path fill="#418471" d="M1494 903.7h-23.4c0-31.6-48.2-61.9-135.7-85-90.3-24-210.7-37.2-338.9-37.2s-248.6 13.2-339 37.2c-87.4 23.1-135.6 53.4-135.6 85H498c0-37.1 53-71.6 149.2-97.1 93.4-24.8 217.2-38.4 348.8-38.4 131.6 0 255.4 13.6 348.8 38.4 96.2 25.5 149.2 60 149.2 97.1Z"/><path fill="url(#i)" d="M1216.4 1031.2c-74.4 21-149.1 39.7-223.9 57.6a5526.7 5526.7 0 0 1-223.9-57.6l40.7-115c61.3-17.8 122.5-36 183.2-57.6a3443.7 3443.7 0 0 0 183.2 57.5l40.7 115.1Z"/><path fill="#0D382E" d="M1216.4 1031.3c-74.4 21-149 48.5-223.9 66.4-74.8-18-149.5-45.3-223.9-66.5l40.7-115c61.3-17.8 122.5-36 183.2-57.6a3523.5 3523.5 0 0 0 183.2 57.5l40.7 115.1Z"/><path fill="url(#j)" d="m992.5 1091.5 223.9-60.3-223.9 307.9v-247.6Z"/><path fill="url(#k)" d="m992.5 1091.5-223.9-60.3 224 307.9v-247.6Z"/><path fill="#0D382E" d="M1229.4 914.7c-78.7 22.3-157.7 42-236.9 61a5929 5929 0 0 1-237-61c17.3-48.7 26-73 43.2-121.8a3380 3380 0 0 0 193.8-61c64.3 22.6 129 42.2 193.8 61l43.1 121.8Z"/><path fill="url(#l)" d="M994.3 1010.8 756 940.6v-26.3l236.5 61"/><path fill="url(#m)" d="m992.5 975.2 236.5-60.9-.5 22.2-234.2 74.3"/><path fill="url(#n)" d="m992.7 947.3-236.7-59 236.7-378.7"/><path fill="url(#o)" d="m992.7 509.6 236.7 378.6-236.7 59.1"/><path fill="url(#p)" d="m799 773.1 193.7-263.5L756 888.2l43-115Z"/><path fill="url(#q)" d="M1186.4 773.1 992.7 509.6l236.7 378.6-43-115Z"/><path fill="#418471" d="M985 1441v-23.4c33.9 0 66.2-48.2 91-135.7 25.7-90.3 39.9-210.7 39.9-338.9s-14.2-248.6-39.8-339c-24.9-87.4-57.2-135.6-91.2-135.6V445c39.8 0 76.8 53 104.1 149.2 26.5 93.4 41.2 217.2 41.2 348.8 0 131.6-14.7 255.4-41.2 348.8-27.3 96.2-64.3 149.2-104 149.2Z"/><path fill="#418471" d="M996 1036c-131.6 0-255.4-13.7-348.8-38.4C551 972 498 937.6 498 900.4h23.4c0 31.7 48.2 61.9 135.7 85 90.3 24 210.7 37.2 338.9 37.2s248.6-13.2 339-37.1c87.4-23.2 135.6-53.4 135.6-85.1h23.4c0 37.2-53 71.7-149.2 97.2-93.4 24.7-217.2 38.3-348.8 38.3Z"/></g><defs><linearGradient id="a" x1="223.7" x2="777.1" y1="905.8" y2="1130.2" gradientUnits="userSpaceOnUse"><stop stop-color="#529673"/><stop offset="1" stop-color="#27584E"/></linearGradient><linearGradient id="b" x1="1769.3" x2="1215.9" y1="905.8" y2="1130.2" gradientUnits="userSpaceOnUse"><stop stop-color="#529673"/><stop offset="1" stop-color="#27584E"/></linearGradient><linearGradient id="c" x1="1546.9" x2="1963.5" y1="483.3" y2="594.9" gradientUnits="userSpaceOnUse"><stop stop-color="#37B883"/><stop offset="1" stop-color="#1A391D"/></linearGradient><linearGradient id="d" x1="1276.1" x2="1774.9" y1="368.1" y2="235.8" gradientUnits="userSpaceOnUse"><stop stop-color="#7AA6B9"/><stop offset="1" stop-color="#163C29"/></linearGradient><linearGradient id="e" x1="446.1" x2="29.5" y1="483.3" y2="594.9" gradientUnits="userSpaceOnUse"><stop stop-color="#37B883"/><stop offset="1" stop-color="#1A391D"/></linearGradient><linearGradient id="f" x1="745.8" x2="168.7" y1="327.1" y2="327.1" gradientUnits="userSpaceOnUse"><stop stop-color="#2FA8A3"/><stop offset="1" stop-color="#163C29"/></linearGradient><linearGradient id="g" x1="996.5" x2="996.5" y1="538.7" y2="1541.5" gradientUnits="userSpaceOnUse"><stop stop-opacity="0"/><stop offset="1"/></linearGradient><linearGradient id="i" x1="768.6" x2="1216.4" y1="973.7" y2="973.7" gradientUnits="userSpaceOnUse"><stop stop-color="#60AB83"/><stop offset="1" stop-color="#234E45"/></linearGradient><linearGradient id="j" x1="992.5" x2="1216.4" y1="1185.2" y2="1185.2" gradientUnits="userSpaceOnUse"><stop stop-color="#2E6257"/><stop offset=".5" stop-color="#2C6055"/><stop offset=".7" stop-color="#265A4E"/><stop offset=".8" stop-color="#1C4F42"/><stop offset=".9" stop-color="#0E4031"/><stop offset="1" stop-color="#003120"/></linearGradient><linearGradient id="k" x1="768.6" x2="992.5" y1="1185.2" y2="1185.2" gradientUnits="userSpaceOnUse"><stop stop-color="#5CA57F"/><stop offset=".5" stop-color="#5AA37D"/><stop offset=".7" stop-color="#579C77"/><stop offset=".9" stop-color="#50906D"/><stop offset="1" stop-color="#477F5E"/><stop offset="1" stop-color="#467E5D"/></linearGradient><linearGradient id="l" x1="756" x2="994.3" y1="962.6" y2="962.6" gradientUnits="userSpaceOnUse"><stop stop-color="#6FC496"/><stop offset=".5" stop-color="#6EC294"/><stop offset=".7" stop-color="#6ABB8E"/><stop offset=".8" stop-color="#64AF85"/><stop offset="1" stop-color="#5C9E77"/><stop offset="1" stop-color="#57956F"/></linearGradient><linearGradient id="m" x1="992.5" x2="1229" y1="962.6" y2="962.6" gradientUnits="userSpaceOnUse"><stop stop-color="#1F503B"/><stop offset="1" stop-color="#27584E"/></linearGradient><linearGradient id="n" x1="498" x2="992.7" y1="728.5" y2="728.5" gradientUnits="userSpaceOnUse"><stop stop-color="#6FC496"/><stop offset=".5" stop-color="#6EC294"/><stop offset=".7" stop-color="#6ABB8E"/><stop offset=".8" stop-color="#64AF85"/><stop offset="1" stop-color="#5C9E77"/><stop offset="1" stop-color="#57956F"/></linearGradient><linearGradient id="o" x1="992.7" x2="1229.4" y1="728.5" y2="728.5" gradientUnits="userSpaceOnUse"><stop stop-color="#2E6257"/><stop offset=".5" stop-color="#2C6055"/><stop offset=".7" stop-color="#265A4E"/><stop offset=".8" stop-color="#1C4F42"/><stop offset=".9" stop-color="#0E4031"/><stop offset="1" stop-color="#003120"/></linearGradient><linearGradient id="p" x1="756" x2="992.7" y1="698.9" y2="698.9" gradientUnits="userSpaceOnUse"><stop offset="0" stop-color="#99D5C8"/><stop offset="1" stop-color="#70C496"/></linearGradient><linearGradient id="q" x1="992.7" x2="1229.4" y1="698.9" y2="698.9" gradientUnits="userSpaceOnUse"><stop stop-color="#2D6158"/><stop offset=".2" stop-color="#24564E"/><stop offset=".7" stop-color="#19473F"/><stop offset="1" stop-color="#15423B"/></linearGradient><clipPath id="h"><path fill="#fff" d="M498 445h996v996H498z"/></clipPath></defs></svg>